<svg viewBox="0 0 68 37" fill="none" xmlns="http://www.w3.org/2000/svg">
<path d="M15.5037 0.705078H15.3669C13.9478 0.705078 12.6918 1.86045 12.569 3.2775L12.5569 3.41437C12.4965 4.1068 12.7099 4.75896 13.1588 5.24808C13.6056 5.73519 14.2316 6.00491 14.92 6.00491H15.0569C16.4759 6.00491 17.732 4.85155 17.8547 3.43249L17.8668 3.29562C17.9272 2.6032 17.7138 1.95103 17.265 1.4599C16.8201 0.972787 16.1941 0.705078 15.5037 0.705078Z" fill="#1E4A2A"/>
<path d="M5.58759 24.3354C5.26553 24.3354 5.03204 24.283 4.9475 24.1904C4.89517 24.1341 4.78245 23.9328 4.84082 23.2665L6.87581 0H2.0812L0.0421864 23.3128C-0.126893 25.2452 0.211266 26.6441 1.07478 27.5881C1.82557 28.4074 2.94472 28.824 4.40001 28.824C6.00626 28.824 6.81342 28.5905 6.89997 28.5644L7.41928 28.4053L7.70108 25.1747L7.80172 24.1643L6.79932 24.3052C6.78725 24.3052 6.51753 24.3354 5.58759 24.3354Z" fill="#1E4A2A"/>
<path d="M10.5703 28.6003H15.4394L17.2349 8.07324H12.3658L10.5703 28.6003Z" fill="#1E4A2A"/>
<path d="M27.9143 21.6338L24.2247 8.07324H19.2188L25.0077 28.6003H29.5769L38.7957 8.07324H33.8099L27.9143 21.6338Z" fill="#1E4A2A"/>
<path d="M46.0493 24.3052C46.0393 24.3072 45.7695 24.3354 44.8376 24.3354C44.5155 24.3354 44.282 24.283 44.1975 24.1904C44.1472 24.1341 44.0324 23.9328 44.0908 23.2665L46.1258 0H41.3312L39.2922 23.3128C39.1231 25.2452 39.4613 26.6441 40.3248 27.5881C41.0756 28.4094 42.1947 28.824 43.65 28.824C45.2563 28.824 46.0634 28.5905 46.15 28.5644L46.6693 28.4053L46.9511 25.1747L47.0517 24.1643L46.0493 24.3052Z" fill="#1E4A2A"/>
<path d="M62.8931 8.07349L56.9673 21.4388L53.1449 8.07349H47.8551L53.9843 27.737L52.6377 30.6375C52.1727 31.656 51.5145 32.0727 50.3631 32.0727C49.2742 32.0727 48.3885 31.811 48.3805 31.809L47.4304 31.5212L47.0439 35.9334L47.678 36.1185C48.8233 36.4547 49.9807 36.5251 50.7496 36.5251C52.531 36.5251 55.1114 36.0581 56.9552 32.0184L67.9997 8.0755H62.8931V8.07349Z" fill="#1E4A2A"/>
</svg>
